<svg width="296" height="70" viewBox="0 0 296 70" fill="none" xmlns="http://www.w3.org/2000/svg">
<path d="M77.176 53H78.296V46.658H79.85V45.72H78.296V45.342C78.296 44.334 78.744 43.886 79.57 43.886C79.738 43.886 79.92 43.914 79.92 43.914V42.948C79.92 42.948 79.696 42.92 79.458 42.92C78.282 42.92 77.176 43.508 77.176 45.342V45.72H76.364V46.658H77.176V53Z" fill="black"/>
<path d="M81.5745 49.36C81.5745 47.764 82.6665 46.546 84.2345 46.546C85.8025 46.546 86.9225 47.75 86.9225 49.36C86.9225 50.984 85.8025 52.174 84.2345 52.174C82.6805 52.174 81.5745 50.998 81.5745 49.36ZM80.4405 49.36C80.4405 51.572 82.0505 53.182 84.2345 53.182C86.4185 53.182 88.0425 51.544 88.0425 49.36C88.0425 47.176 86.4465 45.538 84.2485 45.538C82.0785 45.538 80.4405 47.162 80.4405 49.36Z" fill="black"/>
<path d="M92.7238 45.538C91.6178 45.538 90.8058 46.21 90.5538 46.938V45.72H89.4618V53H90.5678V49.514C90.5678 47.96 91.0578 46.644 92.7238 46.644V45.538Z" fill="black"/>
<path d="M107.693 48.282C107.693 46.686 106.825 45.538 105.201 45.538C104.165 45.538 103.297 46 102.863 46.868C102.527 46.07 101.757 45.538 100.665 45.538C99.6565 45.538 98.8865 46.14 98.6065 46.77C98.6065 46.77 98.6065 46.392 98.6065 45.72H97.5145V53H98.6205V48.59C98.6205 47.358 99.4185 46.546 100.385 46.546C101.407 46.546 102.051 47.246 102.051 48.408V53H103.157V48.632C103.157 47.274 103.927 46.546 104.949 46.546C106.027 46.546 106.587 47.246 106.587 48.618V53H107.693V48.282Z" fill="black"/>
<path d="M112.052 53.182C113.046 53.182 113.872 52.608 114.208 51.95V53H115.314V45.72H114.194V50.144C114.194 51.348 113.424 52.174 112.304 52.174C111.324 52.174 110.582 51.474 110.582 50.312V45.72H109.476V50.27C109.476 51.922 110.358 53.182 112.052 53.182Z" fill="black"/>
<path d="M117.147 53H118.253V42.878H117.147V53Z" fill="black"/>
<path d="M120.239 45.72H119.385V46.658H120.239V50.508C120.239 52.146 120.869 53.098 122.325 53.098C122.703 53.098 122.997 53.056 122.997 53.056V52.076C122.997 52.076 122.829 52.09 122.689 52.09C121.737 52.09 121.345 51.768 121.345 50.41V46.658H122.941V45.72H121.345V44.194H120.239V45.72Z" fill="black"/>
<path d="M124.284 53H125.39V45.72H124.284V53ZM124.074 43.844C124.074 44.278 124.41 44.614 124.83 44.614C125.264 44.614 125.6 44.278 125.6 43.844C125.6 43.424 125.264 43.088 124.83 43.088C124.41 43.088 124.074 43.424 124.074 43.844Z" fill="black"/>
<path d="M127.292 55.618H128.398V51.824C128.622 52.202 129.448 53.182 130.974 53.182C133.032 53.182 134.446 51.6 134.446 49.346C134.446 47.12 132.962 45.538 130.89 45.538C129.308 45.538 128.538 46.602 128.356 46.868V45.72H127.292V55.618ZM128.356 49.346C128.356 47.82 129.308 46.546 130.82 46.546C132.22 46.546 133.312 47.638 133.312 49.346C133.312 51.012 132.276 52.174 130.848 52.174C129.476 52.174 128.356 51.138 128.356 49.346Z" fill="black"/>
<path d="M135.402 50.76C135.402 52.174 136.578 53.182 138.174 53.182C139.154 53.182 139.77 52.818 140.148 52.384L140.274 53H141.226V48.198C141.226 46.644 140.442 45.538 138.454 45.538C137.222 45.538 136.256 46.028 135.766 46.336L136.214 47.148C136.732 46.84 137.46 46.518 138.356 46.518C139.434 46.518 140.12 47.106 140.12 48.128V49.024C139.826 48.716 139.126 48.366 138.202 48.366C136.564 48.366 135.402 49.374 135.402 50.76ZM136.522 50.746C136.522 49.892 137.236 49.248 138.342 49.248C139.434 49.248 140.162 49.836 140.162 50.746C140.162 51.628 139.42 52.258 138.356 52.258C137.236 52.258 136.522 51.586 136.522 50.746Z" fill="black"/>
<path d="M143.407 54.96C144.037 55.352 145.059 55.688 146.011 55.688C148.111 55.688 149.665 54.75 149.665 51.992V45.72H148.601V46.896C148.363 46.504 147.537 45.538 146.025 45.538C143.967 45.538 142.525 47.134 142.525 49.374C142.525 51.6 143.953 53.182 146.039 53.182C147.635 53.182 148.391 52.118 148.559 51.852V52.496C148.559 54.12 147.383 54.694 145.997 54.694C144.947 54.694 144.079 54.26 143.799 54.092L143.407 54.96ZM148.601 49.374C148.601 50.942 147.635 52.174 146.137 52.174C144.737 52.174 143.645 51.068 143.645 49.374C143.645 47.708 144.695 46.546 146.109 46.546C147.495 46.546 148.601 47.61 148.601 49.374Z" fill="black"/>
<path d="M151.042 49.388C151.042 51.628 152.568 53.182 154.78 53.182C156.432 53.182 157.384 52.286 157.79 51.6L157.062 51.068C156.712 51.558 156.026 52.202 154.794 52.202C153.282 52.202 152.19 51.222 152.176 49.598H158.014C158.028 49.458 158.028 49.304 158.028 49.262C158.028 47.078 156.712 45.538 154.57 45.538C152.638 45.538 151.042 47.064 151.042 49.388ZM152.232 48.772C152.316 47.4 153.38 46.49 154.57 46.49C155.774 46.49 156.824 47.26 156.894 48.772H152.232Z" fill="black"/>
<path d="M158.888 51.628C159.21 52.314 159.896 53.182 161.422 53.182C162.836 53.182 163.9 52.314 163.9 51.026C163.9 48.492 160.232 49.108 160.232 47.47C160.232 46.84 160.764 46.462 161.436 46.462C162.374 46.462 162.752 47.008 162.948 47.4L163.76 46.938C163.564 46.392 162.864 45.538 161.506 45.538C160.19 45.538 159.168 46.28 159.168 47.512C159.168 49.976 162.822 49.402 162.822 51.082C162.822 51.824 162.206 52.244 161.478 52.244C160.484 52.244 159.966 51.698 159.658 51.124L158.888 51.628Z" fill="black"/>
<path d="M175.519 53H176.737L179.201 45.72H177.997L176.079 51.712C176.079 51.712 176.065 51.684 174.133 45.72H173.041C171.095 51.684 171.081 51.712 171.081 51.712L169.177 45.72H167.973L170.423 53H171.641L173.587 47.218L175.519 53Z" fill="black"/>
<path d="M180.257 53H181.363V45.72H180.257V53ZM180.047 43.844C180.047 44.278 180.383 44.614 180.803 44.614C181.237 44.614 181.573 44.278 181.573 43.844C181.573 43.424 181.237 43.088 180.803 43.088C180.383 43.088 180.047 43.424 180.047 43.844Z" fill="black"/>
<path d="M183.349 45.72H182.495V46.658H183.349V50.508C183.349 52.146 183.979 53.098 185.435 53.098C185.813 53.098 186.107 53.056 186.107 53.056V52.076C186.107 52.076 185.939 52.09 185.799 52.09C184.847 52.09 184.455 51.768 184.455 50.41V46.658H186.051V45.72H184.455V44.194H183.349V45.72Z" fill="black"/>
<path d="M190.655 45.538C189.661 45.538 188.849 46.112 188.499 46.77V42.878H187.393V53H188.499V48.576C188.499 47.372 189.283 46.546 190.403 46.546C191.383 46.546 192.125 47.246 192.125 48.408V53H193.231V48.45C193.231 46.798 192.349 45.538 190.655 45.538Z" fill="black"/>
<path d="M198.618 55.618H199.724V51.824C199.948 52.202 200.774 53.182 202.3 53.182C204.358 53.182 205.772 51.6 205.772 49.346C205.772 47.12 204.288 45.538 202.216 45.538C200.634 45.538 199.864 46.602 199.682 46.868V45.72H198.618V55.618ZM199.682 49.346C199.682 47.82 200.634 46.546 202.146 46.546C203.546 46.546 204.638 47.638 204.638 49.346C204.638 51.012 203.602 52.174 202.174 52.174C200.802 52.174 199.682 51.138 199.682 49.346Z" fill="black"/>
<path d="M209.71 53.182C210.704 53.182 211.53 52.608 211.866 51.95V53H212.972V45.72H211.852V50.144C211.852 51.348 211.082 52.174 209.962 52.174C208.982 52.174 208.24 51.474 208.24 50.312V45.72H207.134V50.27C207.134 51.922 208.016 53.182 209.71 53.182Z" fill="black"/>
<path d="M215.198 54.96C215.828 55.352 216.85 55.688 217.802 55.688C219.902 55.688 221.456 54.75 221.456 51.992V45.72H220.392V46.896C220.154 46.504 219.328 45.538 217.816 45.538C215.758 45.538 214.316 47.134 214.316 49.374C214.316 51.6 215.744 53.182 217.83 53.182C219.426 53.182 220.182 52.118 220.35 51.852V52.496C220.35 54.12 219.174 54.694 217.788 54.694C216.738 54.694 215.87 54.26 215.59 54.092L215.198 54.96ZM220.392 49.374C220.392 50.942 219.426 52.174 217.928 52.174C216.528 52.174 215.436 51.068 215.436 49.374C215.436 47.708 216.486 46.546 217.9 46.546C219.286 46.546 220.392 47.61 220.392 49.374Z" fill="black"/>
<path d="M222.707 54.512H223.729L227.971 42.5H226.949L222.707 54.512Z" fill="black"/>
<path d="M228.724 51.628C229.046 52.314 229.732 53.182 231.258 53.182C232.672 53.182 233.736 52.314 233.736 51.026C233.736 48.492 230.068 49.108 230.068 47.47C230.068 46.84 230.6 46.462 231.272 46.462C232.21 46.462 232.588 47.008 232.784 47.4L233.596 46.938C233.4 46.392 232.7 45.538 231.342 45.538C230.026 45.538 229.004 46.28 229.004 47.512C229.004 49.976 232.658 49.402 232.658 51.082C232.658 51.824 232.042 52.244 231.314 52.244C230.32 52.244 229.802 51.698 229.494 51.124L228.724 51.628Z" fill="black"/>
<path d="M235.192 45.72H234.338V46.658H235.192V50.508C235.192 52.146 235.822 53.098 237.278 53.098C237.656 53.098 237.95 53.056 237.95 53.056V52.076C237.95 52.076 237.782 52.09 237.642 52.09C236.69 52.09 236.298 51.768 236.298 50.41V46.658H237.894V45.72H236.298V44.194H235.192V45.72Z" fill="black"/>
<path d="M241.817 55.506L245.723 45.72H244.547L242.307 51.572L239.997 45.72H238.793L241.761 52.93L240.711 55.506H241.817Z" fill="black"/>
<path d="M246.77 53H247.876V42.878H246.77V53Z" fill="black"/>
<path d="M252.284 53.182C253.278 53.182 254.104 52.608 254.44 51.95V53H255.546V45.72H254.426V50.144C254.426 51.348 253.656 52.174 252.536 52.174C251.556 52.174 250.814 51.474 250.814 50.312V45.72H249.708V50.27C249.708 51.922 250.59 53.182 252.284 53.182Z" fill="black"/>
<path d="M256.834 51.628C257.156 52.314 257.842 53.182 259.368 53.182C260.782 53.182 261.846 52.314 261.846 51.026C261.846 48.492 258.178 49.108 258.178 47.47C258.178 46.84 258.71 46.462 259.382 46.462C260.32 46.462 260.698 47.008 260.894 47.4L261.706 46.938C261.51 46.392 260.81 45.538 259.452 45.538C258.136 45.538 257.114 46.28 257.114 47.512C257.114 49.976 260.768 49.402 260.768 51.082C260.768 51.824 260.152 52.244 259.424 52.244C258.43 52.244 257.912 51.698 257.604 51.124L256.834 51.628Z" fill="black"/>
<path d="M262.616 54.512H263.638L267.88 42.5H266.858L262.616 54.512Z" fill="black"/>
<path d="M268.703 49.388C268.703 51.628 270.229 53.182 272.441 53.182C274.093 53.182 275.045 52.286 275.451 51.6L274.723 51.068C274.373 51.558 273.687 52.202 272.455 52.202C270.943 52.202 269.851 51.222 269.837 49.598H275.675C275.689 49.458 275.689 49.304 275.689 49.262C275.689 47.078 274.373 45.538 272.231 45.538C270.299 45.538 268.703 47.064 268.703 49.388ZM269.893 48.772C269.977 47.4 271.041 46.49 272.231 46.49C273.435 46.49 274.485 47.26 274.555 48.772H269.893Z" fill="black"/>
<path d="M276.549 51.628C276.871 52.314 277.557 53.182 279.083 53.182C280.497 53.182 281.561 52.314 281.561 51.026C281.561 48.492 277.893 49.108 277.893 47.47C277.893 46.84 278.425 46.462 279.097 46.462C280.035 46.462 280.413 47.008 280.609 47.4L281.421 46.938C281.225 46.392 280.525 45.538 279.167 45.538C277.851 45.538 276.829 46.28 276.829 47.512C276.829 49.976 280.483 49.402 280.483 51.082C280.483 51.824 279.867 52.244 279.139 52.244C278.145 52.244 277.627 51.698 277.319 51.124L276.549 51.628Z" fill="black"/>
<path d="M285.886 52.118C284.08 52.118 283.814 50.662 283.814 49.038C284.22 48.24 284.92 47.68 285.872 47.68C287.146 47.68 287.804 48.632 287.804 49.836C287.804 51.32 287.02 52.118 285.886 52.118ZM286.292 43.018C283.632 43.018 282.666 45.37 282.666 48.884C282.666 51.194 283.352 53.182 285.844 53.182C287.748 53.182 288.938 51.894 288.938 49.808C288.938 47.988 287.874 46.644 286.026 46.644C284.892 46.644 284.206 47.232 283.842 47.75C283.842 46.056 284.374 44.082 286.334 44.082C287.146 44.082 287.65 44.348 287.986 44.586L288.504 43.718C288.056 43.41 287.314 43.018 286.292 43.018Z" fill="black"/>
<path d="M91.3839 31H93.5679L98.3439 14.2H96.2799L92.3919 28.528L88.2639 14.2H86.3439L82.2159 28.528L78.3519 14.2H76.2639L81.0639 31H83.2239L87.3039 17.056L91.3839 31Z" fill="black"/>
<path d="M98.73 24.808C98.73 28.648 101.346 31.312 105.138 31.312C107.97 31.312 109.602 29.776 110.298 28.6L109.05 27.688C108.45 28.528 107.274 29.632 105.162 29.632C102.57 29.632 100.698 27.952 100.674 25.168H110.682C110.706 24.928 110.706 24.664 110.706 24.592C110.706 20.848 108.45 18.208 104.778 18.208C101.466 18.208 98.73 20.824 98.73 24.808ZM100.77 23.752C100.914 21.4 102.738 19.84 104.778 19.84C106.842 19.84 108.642 21.16 108.762 23.752H100.77Z" fill="black"/>
<path d="M113.116 31H114.94V29.032C115.252 29.488 116.572 31.312 119.284 31.312C122.836 31.312 125.38 28.6 125.38 24.784C125.38 20.944 122.956 18.208 119.428 18.208C116.812 18.208 115.396 19.888 115.012 20.536V13.648H113.116V31ZM114.94 24.808C114.94 21.712 116.86 19.936 119.212 19.936C121.66 19.936 123.436 21.952 123.436 24.808C123.436 27.712 121.564 29.608 119.164 29.608C116.572 29.608 114.94 27.424 114.94 24.808Z" fill="black"/>
<path d="M127.812 35.488H129.708V28.984C130.092 29.632 131.508 31.312 134.124 31.312C137.652 31.312 140.076 28.6 140.076 24.736C140.076 20.92 137.532 18.208 133.98 18.208C131.268 18.208 129.948 20.032 129.636 20.488V18.52H127.812V35.488ZM129.636 24.736C129.636 22.12 131.268 19.936 133.86 19.936C136.26 19.936 138.132 21.808 138.132 24.736C138.132 27.592 136.356 29.584 133.908 29.584C131.556 29.584 129.636 27.808 129.636 24.736Z" fill="black"/>
<path d="M141.714 27.16C141.714 29.584 143.73 31.312 146.466 31.312C148.146 31.312 149.202 30.688 149.85 29.944L150.066 31H151.698V22.768C151.698 20.104 150.354 18.208 146.946 18.208C144.834 18.208 143.178 19.048 142.338 19.576L143.106 20.968C143.994 20.44 145.242 19.888 146.778 19.888C148.626 19.888 149.802 20.896 149.802 22.648V24.184C149.298 23.656 148.098 23.056 146.514 23.056C143.706 23.056 141.714 24.784 141.714 27.16ZM143.634 27.136C143.634 25.672 144.858 24.568 146.754 24.568C148.626 24.568 149.874 25.576 149.874 27.136C149.874 28.648 148.602 29.728 146.778 29.728C144.858 29.728 143.634 28.576 143.634 27.136Z" fill="black"/>
<path d="M164.701 19.912C164.053 19.288 162.589 18.208 160.309 18.208C156.685 18.208 153.925 21.064 153.925 24.76C153.925 28.456 156.613 31.312 160.333 31.312C162.661 31.312 164.197 30.064 164.701 29.536L164.125 27.928C163.621 28.432 162.373 29.584 160.405 29.584C157.837 29.584 155.893 27.448 155.893 24.76C155.893 22.048 157.741 19.96 160.357 19.96C162.253 19.96 163.549 21.016 164.053 21.544L164.701 19.912Z" fill="black"/>
<path d="M167.046 31H168.942V24.352L174.294 31H176.742L171.054 24.112L176.43 18.52H174.03L168.942 23.872V13.648H167.046V31Z" fill="black"/>
<path d="M184.601 31H186.425V29.032C186.737 29.488 188.057 31.312 190.769 31.312C194.321 31.312 196.865 28.6 196.865 24.784C196.865 20.944 194.441 18.208 190.913 18.208C188.297 18.208 186.881 19.888 186.497 20.536V13.648H184.601V31ZM186.425 24.808C186.425 21.712 188.345 19.936 190.697 19.936C193.145 19.936 194.921 21.952 194.921 24.808C194.921 27.712 193.049 29.608 190.649 29.608C188.057 29.608 186.425 27.424 186.425 24.808Z" fill="black"/>
<path d="M200.4 24.76C200.4 22.024 202.272 19.936 204.96 19.936C207.648 19.936 209.568 22 209.568 24.76C209.568 27.544 207.648 29.584 204.96 29.584C202.296 29.584 200.4 27.568 200.4 24.76ZM198.456 24.76C198.456 28.552 201.216 31.312 204.96 31.312C208.704 31.312 211.488 28.504 211.488 24.76C211.488 21.016 208.752 18.208 204.984 18.208C201.264 18.208 198.456 20.992 198.456 24.76Z" fill="black"/>
<path d="M213.921 31H215.817V18.52H213.921V31ZM213.561 15.304C213.561 16.048 214.137 16.624 214.857 16.624C215.601 16.624 216.177 16.048 216.177 15.304C216.177 14.584 215.601 14.008 214.857 14.008C214.137 14.008 213.561 14.584 213.561 15.304Z" fill="black"/>
<path d="M219.077 31H220.973V13.648H219.077V31Z" fill="black"/>
<path d="M223.417 24.808C223.417 28.648 226.033 31.312 229.825 31.312C232.657 31.312 234.289 29.776 234.985 28.6L233.737 27.688C233.137 28.528 231.961 29.632 229.849 29.632C227.257 29.632 225.385 27.952 225.361 25.168H235.369C235.393 24.928 235.393 24.664 235.393 24.592C235.393 20.848 233.137 18.208 229.465 18.208C226.153 18.208 223.417 20.824 223.417 24.808ZM225.457 23.752C225.601 21.4 227.425 19.84 229.465 19.84C231.529 19.84 233.329 21.16 233.449 23.752H225.457Z" fill="black"/>
<path d="M243.396 18.208C241.5 18.208 240.108 19.36 239.676 20.608V18.52H237.804V31H239.7V25.024C239.7 22.36 240.54 20.104 243.396 20.104V18.208Z" fill="black"/>
<path d="M245.515 35.488H247.411V28.984C247.795 29.632 249.211 31.312 251.827 31.312C255.355 31.312 257.779 28.6 257.779 24.736C257.779 20.92 255.235 18.208 251.683 18.208C248.971 18.208 247.651 20.032 247.339 20.488V18.52H245.515V35.488ZM247.339 24.736C247.339 22.12 248.971 19.936 251.563 19.936C253.963 19.936 255.835 21.808 255.835 24.736C255.835 27.592 254.059 29.584 251.611 29.584C249.259 29.584 247.339 27.808 247.339 24.736Z" fill="black"/>
<path d="M260.233 31H262.129V13.648H260.233V31Z" fill="black"/>
<path d="M264.574 27.16C264.574 29.584 266.59 31.312 269.326 31.312C271.006 31.312 272.062 30.688 272.71 29.944L272.926 31H274.558V22.768C274.558 20.104 273.214 18.208 269.806 18.208C267.694 18.208 266.038 19.048 265.198 19.576L265.966 20.968C266.854 20.44 268.102 19.888 269.638 19.888C271.486 19.888 272.662 20.896 272.662 22.648V24.184C272.158 23.656 270.958 23.056 269.374 23.056C266.566 23.056 264.574 24.784 264.574 27.16ZM266.494 27.136C266.494 25.672 267.718 24.568 269.614 24.568C271.486 24.568 272.734 25.576 272.734 27.136C272.734 28.648 271.462 29.728 269.638 29.728C267.718 29.728 266.494 28.576 266.494 27.136Z" fill="black"/>
<path d="M277.768 18.52H276.304V20.128H277.768V26.728C277.768 29.536 278.848 31.168 281.344 31.168C281.992 31.168 282.496 31.096 282.496 31.096V29.416C282.496 29.416 282.208 29.44 281.968 29.44C280.336 29.44 279.664 28.888 279.664 26.56V20.128H282.4V18.52H279.664V15.904H277.768V18.52Z" fill="black"/>
<path d="M283.886 24.808C283.886 28.648 286.502 31.312 290.294 31.312C293.126 31.312 294.758 29.776 295.454 28.6L294.206 27.688C293.606 28.528 292.43 29.632 290.318 29.632C287.726 29.632 285.854 27.952 285.83 25.168H295.838C295.862 24.928 295.862 24.664 295.862 24.592C295.862 20.848 293.606 18.208 289.934 18.208C286.622 18.208 283.886 20.824 283.886 24.808ZM285.926 23.752C286.07 21.4 287.894 19.84 289.934 19.84C291.998 19.84 293.798 21.16 293.918 23.752H285.926Z" fill="black"/>
<path d="M31 0L-7.30157e-07 17.498V52.502L31 70L62 52.502V17.498L31 0Z" fill="white"/>
<path d="M5.5351 51.295L29.9746 65.0919V54.3485L14.747 45.9872L5.5351 51.295V51.295ZM3.86095 49.7842V20.9353L12.8005 26.0911V44.6363L3.86095 49.7842V49.7842ZM56.5609 51.295L32.1214 65.0919V54.3485L47.3571 45.9872L56.5609 51.295ZM58.2351 49.7842V20.9353L49.2956 26.0911V44.6363L58.2351 49.7842ZM57.1858 19.0648L32.1214 4.91608V15.2998L48.1821 24.1167L48.3103 24.1887L57.1858 19.0648V19.0648ZM4.9103 19.0648L29.9746 4.91608V15.2998L13.9139 24.1087L13.7858 24.1807L4.9103 19.0648Z" fill="#8ED6FB"/>
<path d="M32.1213 51.9024L47.1487 43.653V27.3221L32.1213 35.9792V51.9024ZM29.9745 51.9024L14.9472 43.661V27.3221L29.9745 35.9792V51.9024ZM46.1314 25.4356L31.0479 17.1622L15.9645 25.4356L31.0479 34.1247L46.1314 25.4356V25.4356Z" fill="#1C78C0"/>
</svg>
